<svg xmlns="http://www.w3.org/2000/svg" width="27" height="26" viewBox="0 0 27 26"><path fill="#ffffff" fill-rule="evenodd" d="M25.594 22.008c-1.05.58-2.23.98-3.5.98-3.866 0-7-3.134-7-7 0-1.33.371-2.573 1.015-3.632-.93-.19-1.94-.21-2.94-.21-5.776 0-10.32 5.093-10.988 11.628-.13 1.358 1.088 2.372 2.311 2.372h21.46c1.223 0 2.342-1.014 2.199-2.372-.117-1.452-.387-2.91-.81-4.272z"/><circle cx="13" cy="5" r="5" fill="#ffffff"/><path fill="#F4F5F7" fill-rule="evenodd" d="M22 21c2.761 0 5-2.239 5-5 0-2.761-2.239-5-5-5-2.761 0-5 2.239-5 5 0 2.761 2.239 5 5 5zm.75-8v2.25h2.25v1.5h-2.25v2.25h-1.5v-2.25h-2.25v-1.5h2.25v-2.25h1.5z"/></svg>