<svg xmlns="http://www.w3.org/2000/svg" width="16" height="16" viewBox="0 0 16 16">
  <path fill="#197AFA" d="M11.2283 2.07031C11.4025 2.07031 11.5751 2.10479 11.7361 2.17177C11.8971 2.23876 12.0434 2.33694 12.1666 2.46071C12.2899 2.58448 12.3876 2.73142 12.4543 2.89313C12.521 3.05485 12.5553 3.22817 12.5553 3.40321V5.89797L14.3404 4.56441C14.4413 4.50652 14.5555 4.47626 14.6717 4.47665C14.7879 4.47705 14.902 4.50808 15.0025 4.56665C15.103 4.62522 15.1864 4.70927 15.2444 4.8104C15.3024 4.91152 15.333 5.02618 15.333 5.14288V10.8437C15.333 10.9604 15.3024 11.0751 15.2444 11.1762C15.1864 11.2773 15.103 11.3614 15.0025 11.4199C14.902 11.4785 14.7879 11.5095 14.6717 11.5099C14.5555 11.5103 14.4413 11.4801 14.3404 11.4222L12.5553 10.0873V12.5973C12.5553 12.7723 12.521 12.9456 12.4543 13.1074C12.3876 13.2691 12.2899 13.416 12.1666 13.5398C12.0434 13.6635 11.8971 13.7617 11.7361 13.8287C11.5751 13.8957 11.4025 13.9302 11.2283 13.9302H2.06241C1.88814 13.9302 1.71557 13.8957 1.55457 13.8287C1.39356 13.7617 1.24727 13.6635 1.12404 13.5398C1.00081 13.416 0.903059 13.2691 0.836368 13.1074C0.769677 12.9456 0.735352 12.7723 0.735352 12.5973V3.40321C0.735352 3.22817 0.769677 3.05485 0.836368 2.89313C0.903059 2.73142 1.00081 2.58448 1.12404 2.46071C1.24727 2.33694 1.39356 2.23876 1.55457 2.17177C1.71557 2.10479 1.88814 2.07031 2.06241 2.07031H11.2283ZM11.2283 4.40321C11.2283 3.85093 10.7805 3.40321 10.2283 3.40321H3.06241C2.51013 3.40321 2.06241 3.85093 2.06241 4.40321V11.5973C2.06241 12.1496 2.51013 12.5973 3.06241 12.5973H10.2282C10.7805 12.5973 11.2283 12.1496 11.2283 11.5973V4.40321ZM14.0059 6.29117L12.5553 7.43347V8.55245L14.0059 9.69474V6.29117Z"/>
</svg>