<svg width="18" height="18" viewBox="0 0 18 18" xmlns="http://www.w3.org/2000/svg">
  <path d="M16.472 5.411L13.972 6.411c-.289.114-.5.391-.5.708v3.784c0 .317.211.593.472.707l2.5.5c.492.197 1.028-.214 1.028-.708V6.108c0-.494-.536-.785-1.028-.589z" fill="#666666"/>
  <path d="M2 3h9c.828 0 1.5.672 1.5 1.5v9c0 .828-.672 1.5-1.5 1.5H5.904H2c-.828 0-1.5-.672-1.5-1.5v-9c0-.828.672-1.5 1.5-1.5zM8.138 9.512l1.245 1.245c.075.075.117.177.117.283 0 .106-.042.208-.117.283l-.283.283c-.175.208-.434.336-.717.378-.017.003-.033.005-.05.005-.258.005-.505-.042-.748-.122-.5-.344-1.291-.842-2.074-1.526-.736-.736-1.242-1.526-1.717-2.31-.08-.15-.144-.3-.144-.455 0-.156.064-.31.144-.455l.283-.283c.075-.075.177-.117.283-.117s.208.042.283.117l1.245 1.245c.075.075.117.177.117.283 0 .106-.042.208-.117.283l-.283.283c-.208.208.153.833.606 1.286.453.453.915.6 1.09.396l.283-.283c.075-.075.177-.117.283-.117.106 0 .208.042.283.117l.283.283c.208.208-.153.833-.606 1.286-.453.453-.915.6-1.09.396l-.283-.283c-.075-.075-.117-.177-.117-.283 0-.106.042-.208.117-.283l.283-.283c.208-.208-.153-.833-.606-1.286-.453-.453-.915-.6-1.09-.396l-.283.283c-.075.075-.177.117-.283.117-.106 0-.208-.042-.283-.117L8.138 9.512z" fill="#666666" fill-rule="evenodd"/>
</svg>