<svg width="64" height="64" viewBox="0 0 1024 1024" xmlns="http://www.w3.org/2000/svg">
    <path fill="#ffffff" d="M512,0 C230.4,0 0,230.4 0,512 s230.4,512 512,512 512,-230.4 512,-512 S793.6,0 512,0 z M512,981.3 C253.9,981.3 42.7,770.1 42.7,512 S253.9,42.7 512,42.7 s469.3,211.2 469.3,469.3 -211.2,469.3 -469.3,469.3 z"/>
    <path fill="#ffffff" d="M608,320 a32,32 0 0,1 32,32 v320 a32,32 0 1,1 -64,0 v-320 a32,32 0 0,1 32,-32 z M416,320 a32,32 0 0,1 32,32 v320 a32,32 0 1,1 -64,0 v-320 a32,32 0 0,1 32,-32 z"/>
</svg>