<svg xmlns="http://www.w3.org/2000/svg" viewBox="0 0 120 120" width="120" height="120">
  <path fill="#DCE3F3" d="M24 26C21.79 26 20 27.79 20 30V84C20 84.06 20 84.11 20 84.16L20.02 97.8C20.02 98.35 20.43 98.63 20.92 98.38C23.73 96.92 32.51 91.99 39.56 88H96C98.21 88 100 86.21 100 84V30C100 27.79 98.21 26 96 26H24ZM31.5 42C31.5 40.9 32.4 40 33.5 40H86.5C87.6 40 88.5 40.9 88.5 42V47C88.5 48.1 87.6 49 86.5 49H33.5C32.4 49 31.5 48.1 31.5 47V42ZM33.5 57C32.4 57 31.5 57.9 31.5 59V64C31.5 65.1 32.4 66 33.5 66H73.5C74.6 66 75.5 65.1 75.5 64V59C75.5 57.9 74.6 57 73.5 57H33.5Z" fill-rule="evenodd"/>
</svg>