<svg width="24" height="24" viewBox="0 0 24 24" xmlns="http://www.w3.org/2000/svg">
  <path d="M10.404 3.407a1 1 0 00-.611 2.996c-5.211 1.079-5.276 5.876-5.276 5.876a1 1 0 00.122 1.237 1 1 0 001.117.189c.837.8 1.694 2.015-.465 4.844a1 1 0 00.13 1.304l1.145 1.792a1 1 0 001.34-.267c1.3-3.785 4.408-3.321 5.506-3.017a1 1 0 001.02.579c1.1 3.785 4.208 3.321 5.306 3.017a1 1 0 001.34.267l1.145-1.792a1 1 0 00.13-1.304c-2.16-2.829 1.302-4.044 1.14-4.843a1 1 0 00.189-1.117c0-.001-5.065-4.797-5.276-5.876a1 1 0 00-.611-2.996H10.935a1 1 0 00-.531-.407z" stroke-width="2" fill="none" stroke="#333333"/>
  <circle cx="12" cy="12" r="2.5" stroke-width="2" fill="none" stroke="#333333"/>
</svg>