<svg xmlns="http://www.w3.org/2000/svg" width="48" height="48" viewBox="0 0 48 48">
  <path d="M8 0 L40 0 A8 8 0 0 1 48 8 L48 40 A8 8 0 0 1 40 48 L8 48 A8 8 0 0 1 0 40 L0 8 A8 8 0 0 1 8 0 Z" fill="#F4F5F7"/>
  <path d="M33.962 19.215 L30.629 20.548 C30.249 20.7 30 21.068 30 21.477 V26.523 C30 26.932 30.249 27.299 30.629 27.451 L33.962 28.785 C34.619 29.047 35.333 28.564 35.333 27.856 V20.143 C35.333 19.436 34.619 18.952 33.962 19.215 Z" fill="#3CBD45"/>
  <path d="M14.667 16 H26.667 C27.772 16 28.667 16.895 28.667 18 V30 C28.667 31.105 27.772 32 26.667 32 H19.872 H14.667 C13.562 32 12.667 31.105 12.667 30 V18 C12.667 16.895 13.562 16 14.667 16 Z M22.851 24.683 L24.511 26.343 C24.611 26.443 24.667 26.579 24.667 26.72 C24.667 26.862 24.611 26.997 24.511 27.097 L24.134 27.475 C23.855 27.753 23.488 27.923 23.044 27.979 C22.934 27.993 22.823 28 22.712 28 C22.388 28 22.039 27.945 21.67 27.837 C20.667 27.542 19.613 26.877 18.701 25.966 C17.79 25.054 17.125 24 16.83 22.997 C16.683 22.497 16.635 22.035 16.687 21.623 C16.744 21.179 16.913 20.812 17.192 20.533 L17.569 20.156 C17.67 20.056 17.805 20 17.947 20 C18.088 20 18.224 20.056 18.324 20.156 L19.984 21.816 C20.084 21.916 20.14 22.052 20.14 22.193 C20.14 22.335 20.084 22.47 19.984 22.57 L19.607 22.948 C19.393 23.161 19.662 23.795 20.267 24.4 C20.872 25.004 21.487 25.2 21.719 25.06 L22.097 24.683 C22.197 24.583 22.332 24.527 22.474 24.527 C22.615 24.527 22.751 24.583 22.851 24.683 Z" fill="#3CBD45"/>
</svg>