<svg width="18" height="18" viewBox="0 0 18 18" xmlns="http://www.w3.org/2000/svg"><path d="M16.472 5.411L13.972 6.411c-.293.114-.472.391-.472.698v3.784c0 .307.179.583.472.697l2.5.99c.492.197 1.028-.214 1.028-.697v-5.784c0-.483-.536-.77-1.028-.57z" fill="#888888"/><path d="M2 3h9c.828 0 1.5.672 1.5 1.5v9c0 .828-.672 1.5-1.5 1.5h-6.096H2c-.828 0-1.5-.672-1.5-1.5v-9c0-.828.672-1.5 1.5-1.5zM8.138 9.512l1.245 1.245c.075.075.118.177.118.283 0 .105-.043.207-.118.282l-.283.283c-.198.208-.53.336-.847.378-.017.003-.033.005-.05.005-.257 0-.51-.043-.748-.122-.5-.292-1.236-.842-1.974-1.526-.717-.717-1.342-1.53-1.618-2.352-.092-.272-.09-.55-.02-.783.09-.225.218-.4.427-.4.065 0 .167.015.243.045l.384.336c.075.075.118.177.118.283 0 .105-.043.207-.118.282l-.283.283c-.453.46-.455.936-.007 1.396.653.553 1.115.7 1.289.595l.283-.283c.175-.175.277-.277.383-.277.106 0 .207.103.383.277z" fill="#888888" fill-rule="evenodd"/></svg>