<svg xmlns="http://www.w3.org/2000/svg" width="12" height="12" viewBox="0 0 12 12">
  <path d="M6 10.909C8.711 10.909 10.909 8.711 10.909 6C10.909 3.289 8.711 1.091 6 1.091C3.289 1.091 1.091 3.289 1.091 6C1.091 8.711 3.289 10.909 6 10.909ZM5.866 7.569L8.373 5.062C8.533 4.902 8.533 4.643 8.373 4.483C8.214 4.324 7.955 4.324 7.795 4.483L5.577 6.701L4.517 5.64C4.357 5.481 4.098 5.481 3.938 5.64C3.778 5.8 3.778 6.059 3.938 6.219L5.288 7.569C5.448 7.729 5.707 7.729 5.866 7.569Z" fill="#999DA8"/>
</svg>