<svg xmlns="http://www.w3.org/2000/svg" viewBox="0 0 96 96" width="96" height="96">
  <path d="M46.046 91.646c0.697 0.49 1.518 0.735 2.339 0.735 0.821 0 1.642-0.245 2.34-0.735 1.395-0.939 42.26-26.883 42.26-51.835 0-19.754-16.132-35.794-36.001-35.794-19.869 0-36.001 16.04-36.001 35.794 0 24.052 31.605 48.786 43.96 51.826zM24.746 39.475c0 13.021 10.618 23.639 23.639 23.639s23.639-10.618 23.639-23.639c0-13.021-10.618-23.639-23.639-23.639s-23.639 10.618-23.639 23.639z" fill="#FE6E30"/>
  <path d="M41.783 32.282L55.217 45.717" stroke-width="6.75395" fill="none" stroke="#FE6E30" stroke-linecap="round"/>
  <path d="M55.217 32.282L41.783 45.717" stroke-width="6.75395" fill="none" stroke="#FE6E30" stroke-linecap="round"/>
</svg>