<svg xmlns="http://www.w3.org/2000/svg" width="24" height="24" viewBox="0 0 24 24"><path fill="#ffffff" fill-rule="evenodd" d="M2.72 9a1 1 0 00.35-.97l.99-1.18a1 1 0 011.41 1.18l-.99 1.18a1 1 0 00-.35.97H2.72zm4.405 7.5l1.967-4.751 1.873 2.232h-1.16l-1.06 2.151a1 1 0 01-.86.355h-1.28zm3.875-3.75c1.272 0 2.476-.29 3.552-.802l1.04 1.181a7.48 7.48 0 01-3.552 1.181c-4.734 0-8.681-3.375-9.565-8.099H.175L3.12 10.5 6.08 13.9l-2.11 0c.76 3.74 4.03 6.35 8.03 6.35zm4.693-1.464L17.66 19.94c0 0 0 0 0 0l1.465 1.747 1.096-1.836L4.696 2.465 3.7 3.301l1.465 1.746a1 1 0 001.465 0l.968-.953a1 1 0 001.465 0l3.52 3.595 1.167 1.273 1.688 1.077h-.001l.954 1.127h-.001l.954 1.127H16.69l4.034-4.805c0 0 0 0 0 0L21.635 13.5c-.27 1.8-.81 3.396-1.67 4.708l-1.04-1.18c.764-1.02 1.302-2.22 1.54-3.51h1.52zm9.236-9.75c-.27 1.75-.91 3.346-1.87 4.658l-1.04-1.18c.764-1.02 1.302-2.22 1.54-3.51h1.52zm-9.2 3l2.776 6.705-3.068-3.657-.197-.516a1 1 0 00-.34-.69l-.02-.03-.92-1.08.388-.388h1.68zm.162-3c1.357 0 2.638.328 3.767 1.408l-.99-1.174C13.36 4.078 12.08 3.75 10.72 3.75c-4.257 0-7.877 2.728-9.206 6.532h1.575c.736-2.916 3.456-5.075 6.956-5.075 3.257 0 6.485 2.115 7.814 5.075h1.725c-1.33-3.804-4.95-6.532-9.206-6.532z"/></svg>