<svg width="24" height="24" viewBox="0 0 24 24" xmlns="http://www.w3.org/2000/svg"><path d="M20.114 13.5C19.409 17.34 16.044 20.25 12 20.25 8.098 20.25 4.828 17.541 3.97 13.901h2.112l-2.964-.001-3.944 3.401h2.26C3.319 18.375 7.266 21.75 12 21.75c4.725 0 8.764-3.375 9.485-9.25h-1.521z" fill="#ffffff"/><path d="M21.206 8.782c-1.329-3.804-5.139-6.518-9.206-6.518-3.939 0-7.662 2.833-8.928 6.54h1.592c1.101-3.073 4.09-5.25 7.688-5.25 3.415 0 6.345 2.075 7.599 5.232h-1.724l2.943 3.4h2.575l-2.964-3.4h-.575z" fill="#ffffff"/><path d="M16.875 16.5h-4.75l-1.68-9.75h1.676l4.75 9.75h-.48c-.047 0-.165-.034-.21-.066-.045-.032-.111-.084-.148-.15l-.85-2.161H10.257l1.4-3.555c.052-.066.109-.151.165-.245.057-.089.114-.194.166-.307.117.224.233.574.346.849l2.4 4.602z" fill="#ffffff"/></svg>