<svg xmlns="http://www.w3.org/2000/svg" viewBox="0 0 16 16" width="16" height="16">
  <g stroke="#959595" stroke-width="1.2" fill="none" stroke-linecap="round" stroke-linejoin="round">
    <circle cx="8.067" cy="4.667" r="2.05" />
    <circle cx="10.889" cy="6.667" r="1.4" />
    <path d="M1.523 11.097C2.21 10.158 3.871 9.334 5.88 9.334c2.009 0 3.67.824 4.51 1.763.143.217.166.516.166.825v1.076c0 .552.448 1 1 1h3.334c.552 0 1-.448 1-1v-1.076c0-.223-.069-.438-.19-.622-.474-.67-1.69-1.26-3.076-1.26-1.389 0-2.63.59-3.469 1.537-.143.217-.166.516-.166.825v1.076c0 .552-.448 1-1 1H2.334c-.552 0-1-.448-1-1v-1.076c0-.223.069-.438.19-.622z" />
    <path d="M11.585 10.667c1.387 0 2.603.589 3.077 1.259.109.153.228.368.228.583v.482c0 .552-.448 1-1 1h-2.333c-.552 0-1-.448-1-1v-.482c0-.153.069-.298.19-.422.474-.67 1.69-1.26 3.076-1.26z" />
  </g>
</svg>