<svg xmlns="http://www.w3.org/2000/svg" width="24" height="24" viewBox="0 0 24 24">
  <path d="M18.5 5C16.924 5.484 15.84 6.452 15.84 7.903c0 0.766 2.101 1.352 2.627 1.352 0.875 0 0.525-1.968-0.441-2.935-0.334-0.786-2.286-0.214-2.571 0.58-0.285 1.442-0.285 2.409 1.576 2.575 1.576 3.85-0.5 4.24" stroke-width="1.5" fill="none" stroke="#ffffff"/>
  <path d="M4.5 16.999c0.5-0.499 1.076-1.221 1.703-1.515 0.702 0.378 0.701 1.517 1.904 1.517 1.202 0 3.207-0.398 3.607 1.35 0.215 0.78 0.4 1.945-0.4 2.7" stroke-width="1.5" fill="none" stroke="#ffffff"/>
  <path d="M12 12m-9.25 0a9.25 9.25 0 1 1 18.5 0 9.25 9.25 0 1 1-18.5 0" stroke-width="1.5" fill="none" stroke="#D9D9D9"/>
  <path d="M12 12m-9.25 0a9.25 9.25 0 1 1 18.5 0 9.25 9.25 0 1 1-18.5 0" stroke-width="1.5" fill="none" stroke="#ffffff"/>
  <path d="M11 3c0.5 0.5 1.5 1.7 1.5 2.5s-3.5 1.5-4 2c-0.5 0.5-1 1-0.5 2s0.5 2.5-0.5 3c-1.118 1.118-2 1-3-0.5s-1.5-1-2 0c-1 1-1.5-1-1.5-1.5" stroke-width="1.5" fill="none" stroke="#ffffff"/>
</svg>