<svg width="32" height="32" viewBox="0 0 32 32" xmlns="http://www.w3.org/2000/svg">
  <path d="M9 5c0-.552.448-1 1-1h2c.552 0 1 .448 1 1v1h6v-1c0-.552.448-1 1-1h2c.552 0 1 .448 1 1v1h2c1.105 0 2 .895 2 2v16c0 1.105-.895 2-2 2H7c-1.105 0-2-.895-2-2V8c0-1.105.895-2 2-2h2v1zM15.5 11.5c-.552 0-1 .448-1 1v1c0 .552.448 1 1 1h1c.552 0 1-.448 1-1v-1c0-.552-.448-1-1-1h-1zm0 6c-.552 0-1 .448-1 1v1c0 .552.448 1 1 1h1c.552 0 1-.448 1-1v-1c0-.552-.448-1-1-1h-1zm-7 0c0-.552.448-1 1-1h1c.552 0 1 .448 1 1v1c0 .552-.448 1-1 1h-1c-.552 0-1-.448-1-1v-1zm7-7c-.552 0-1 .448-1 1v1c0 .552.448 1 1 1h1c.552 0 1-.448 1-1v-1c0-.552-.448-1-1-1h-1zM20.5 18.5c0-.552.448-1 1-1h1c.552 0 1 .448 1 1v1c0 .552-.448 1-1 1h-1c-.552 0-1-.448-1-1v-1z" fill="#333333" fill-rule="evenodd"/>
</svg>