<svg width="32" height="32" viewBox="0 0 32 32" xmlns="http://www.w3.org/2000/svg">
  <path d="M25 9V26.118C25 27.712 23.712 29 22.129 29H9.871C8.288 29 7 27.712 7 26.118V9L25 9Z" stroke-width="2" fill="none" stroke="#333333"/>
  <path d="M3.077 7.731L28.923 7.731A1.077 1.077 0 0 1 30 8.808L30 8.808A1.077 1.077 0 0 1 28.923 9.885L3.077 9.885A1.077 1.077 0 0 1 2 8.808L2 8.808A1.077 1.077 0 0 1 3.077 7.731Z" fill="#333333"/>
  <path d="M11.691 6.654C11.691 5.464 12.656 4.5 13.845 4.5H18.153C19.343 4.5 20.307 5.464 20.307 6.654V8.808H11.691V6.654Z" stroke-width="2" fill="none" stroke="#333333"/>
  <path d="M13 14L13 14A1 1 0 0 1 14 15L14 22A1 1 0 0 1 13 23L13 23A1 1 0 0 1 12 22L12 15A1 1 0 0 1 13 14z" fill="#333333"/>
  <path d="M19 14L19 14A1 1 0 0 1 20 15L20 22A1 1 0 0 1 19 23L19 23A1 1 0 0 1 18 22L18 15A1 1 0 0 1 19 14z" fill="#333333"/>
</svg>