<svg xmlns="http://www.w3.org/2000/svg" width="24" height="24" viewBox="0 0 24 24">
  <defs>
    <clipPath id="clip-path">
      <path d="M0,0h24v24h-24z"/>
    </clipPath>
  </defs>
  <g clip-path="url(#clip-path)">
    <path d="M16.243,6.757C18.586,9.1 18.586,12.899 16.243,15.243C13.899,17.586 10.101,17.586 7.757,15.243C5.414,12.899 5.414,9.1 7.757,6.757C10.101,4.414 13.899,4.414 16.243,6.757ZM18.32,15.906C20.763,12.767 20.542,8.228 17.657,5.343C14.533,2.219 9.467,2.219 6.343,5.343C3.219,8.467 3.219,13.533 6.343,16.657C9.228,19.542 13.767,19.763 16.906,17.32L19.773,20.187C20.164,20.578 20.797,20.578 21.187,20.187C21.578,19.797 21.578,19.164 21.187,18.773L18.32,15.906Z" fill="#bbbbbb" fill-rule="evenodd"/>
  </g>
</svg>