<svg xmlns="http://www.w3.org/2000/svg" width="18" height="19" viewBox="0 0 18 19">
  <path d="M16.472 5.911L13.972 6.911C13.687 7.025 13.5 7.301 13.5 7.608v3.784c0 .307.187.583.472.697l2.5.189c.492.097 1.028-.356 1.028-.847V6.608c0-.49-.536-.85-1.028-.697z" fill="#666666"/>
  <path d="M11 3.5H2C1.172 3.5.5 4.172.5 5v9c0 .828.672 1.5 1.5 1.5h3.904h5.5c.828 0 1.5-.672 1.5-1.5v-9c0-.828-.672-1.5-1.5-1.5z" fill="#666666"/>
  <g clip-path="M11 3.5H2C1.172 3.5.5 4.172.5 5V14c0 .828.672 1.5 1.5 1.5h3.904h5.5c.828 0 1.5-.672 1.5-1.5v-9c0-.828-.672-1.5-1.5-1.5z">
    <path d="M2 5h9V2H2v3zm0 9v-9H-1v9h3zm9-9v9h3v-9h-3zm0 9H5.904v3H11v-3zm-5.908 0H2v3h3.904v-3zM-1 14c0 1.657 1.343 3 3 3v-3h-3zm12 0v3c1.657 0 3-1.343 3-3h-3zm0-9h3c0-1.657-1.343-3-3-3v3zM2 2C.343 2-1 3.343-1 5h3V2z" fill="#666666"/>
  </g>
</svg>