<svg width="14" height="13" viewBox="0 0 14 13" xmlns="http://www.w3.org/2000/svg">
  <path d="M11.969 0.849c0.224 0.356-0.037 0.834-0.379 1.067l-1.629 1.1c-0.35 0.181-0.818 0.081-1.015-0.265-0.197-0.346-0.094-0.821 0.248-1.053l1.629-1.1c0.342-0.181 0.8-0.081 1.015 0.265zM9.37 6.479c0-0.426 0.331-0.771 0.74-0.771h2.601c0.409 0 0.74 0.345 0.74 0.771 0 0.425-0.331 0.77-0.74 0.77h-2.601c-0.409 0-0.74-0.345-0.74-0.77zM9.065 10.487c0.189-0.377 0.636-0.527 0.998-0.327l1.629 0.885c0.361 0.181 0.502 0.646 0.313 1.024-0.189 0.377-0.636 0.527-0.998 0.327l-1.629-0.885c-0.361-0.181-0.502-0.646-0.313-1.024z" fill="#0066FF"/>
  <path d="M3.848 9.574l.397-.514c-.117-.052-.237-.09-.367-.09H1.84c-.437 0-.799-.306-.799-.682v-3.846c0-.18.197-.531.639-.531h2.008c.112 0 .254-.05.368-.14l-.399-.511.399.511.001.001.001-.001.001-.001.002-.001.002-.001.003-.001.004-.002.006-.003.008-.005.01-.007.012-.01.015-.012.018-.014.021-.017.024-.02.028-.023.031-.026.035-.029.039-.032.043-.035.047-.038.051-.041.055-.044.059-.047.063-.05.067-.053.071-.056.075-.059.079-.062.083-.065.087-.068.091-.071.095-.074.099-.077.103-.08.107-.083.111-.086.115-.089.119-.092.123-.095.127-.098.131-.101.135-.104.139-.107.143-.11.147-.113.151-.116.155-.119.159-.122.163-.125.167-.128.171-.131.175-.134.179-.137.183-.14.187-.143.191-.146.195-.149.199-.152.203-.155.207-.158.211-.161.215-.164.219-.167.223-.17.227-.173.231-.176.235-.179.239-.182.243-.185.247-.188.251-.191.255-.194.259-.197.263-.2.267-.203.271-.206.275-.209.279-.212.283-.215.287-.218.291-.221.295-.224.299-.227.303-.23.307-.233.311-.236.315-.239.319-.242.323-.245.327-.248.331-.251.335-.254.339-.257.343-.26.347-.263.351-.266.355-.269.359-.272.363-.275.367-.278.371-.281.375-.284.379-.287.383-.29.387-.293.391-.296.395-.299.399-.302.403-.305.407-.308.411-.311.415-.314.419-.317.423-.32.427-.323.431-.326.435-.329.439-.332.443-.335.447-.338.451-.341.455-.344.459-.347.463-.35.467-.353.471-.356.475-.359.479-.362.483-.365.487-.368.491-.371.495-.374.499-.377.503-.38.507-.383.511-.386.515-.389.519-.392.523-.395.527-.398.531-.401.535-.404.539-.407.543-.41.547-.413.551-.416.555-.419.559-.422.563-.425.567-.428.571-.431.575-.434.579-.437.583-.44.587-.443.591-.446.595-.449.599-.452.603-.455.607-.458.611-.461.615-.464.619-.467.623-.47.627-.473.631-.476.635-.479.639-.482.643-.485.647-.488.651-.491.655-.494.659-.497.663-.5.667-.503.671-.506.675-.509.679-.512.683-.515.687-.518.691-.521.695-.524.699-.527.703-.53.707-.533.711-.536.715-.539.719-.542.723-.545.727-.548.731-.551.735-.554.739-.557.743-.56.747-.563.751-.566.755-.569.759-.572.763-.575.767-.578.771-.581.775-.584.779-.587.783-.59.787-.593.791-.596.795-.599.799-.602.803-.605.807-.608.811-.611.815-.614.819-.617.823-.62.827-.623.831-.626.835-.629.839-.632.843-.635.847-.638.851-.641.855-.644.859-.647.863-.65.867-.653.871-.656.875-.659.879-.662.883-.665.887-.668.891-.671.895-.674.899-.677.903-.68.907-.683.911-.686.915-.689.919-.692.923-.695.927-.698.931-.701.935-.704.939-.707.943-.71.947-.713.951-.716.955-.719.959-.722.963-.725.967-.728.971-.731.975-.734.979-.737.983-.74.987-.743.991-.746.995-.7491" stroke-linejoin="round" stroke-width="1.3" fill="none" stroke="#0066FF"/>
</svg>