<svg xmlns="http://www.w3.org/2000/svg" viewBox="0 0 18 18" width="18" height="18">
  <path d="M1.636 9C1.636 13.066 4.933 16.363 9 16.363C13.067 16.363 16.364 13.066 16.364 9C16.364 4.933 13.067 1.636 9 1.636C4.933 1.636 1.636 4.933 1.636 9zM8.182 12.272C8.182 11.821 8.548 11.454 9 11.454C9.452 11.454 9.818 11.821 9.818 12.272C9.818 12.724 9.452 13.091 9 13.091C8.548 13.091 8.182 12.724 8.182 12.272zM9.614 10.022C9.614 10.361 9.339 10.636 9 10.636C8.661 10.636 8.386 10.361 8.386 10.022L8.386 5.522C8.386 5.183 8.661 4.909 9 4.909C9.339 4.909 9.614 5.183 9.614 5.522L9.614 10.022z" fill="#CB5206"/>
</svg>