<svg width="96" height="96" viewBox="0 0 96 96" xmlns="http://www.w3.org/2000/svg">
  <path fill="#3CBD45" fill-rule="evenodd" d="M46.046 91.646c.697.49 1.518.735 2.339.735s1.642-.245 2.339-.735c1.354-.939 32.264-22.883 32.264-51.835 0-19.754-16.132-35.794-36.001-35.794S12.385 20.057 12.385 39.811c0 28.952 30.9 50.686 32.255 51.625zM24.746 39.475c0 13.021 10.618 23.639 23.639 23.639s23.639-10.618 23.639-23.639c0-13.021-10.618-23.639-23.639-23.639s-23.639 10.618-23.639 23.639z"/>
  <path stroke="#3CBD45" stroke-width="6.75395" fill="none" stroke-linecap="round" d="M38.254 38.859l7.141 7.142c.066.066.174.066.24 0l12.771-12.771"/>
</svg>