<svg width="18" height="18" viewBox="0 0 18 18" xmlns="http://www.w3.org/2000/svg">
  <path d="M16.472 5.411L13.972 6.411c-0.285.114-0.5.39-0.5.697v3.784c0 .307.285.583.5.697l2.5.5c0.591.197 1.5-.2 1.5-.697v-5.784c0-.497-.909-.785-1.5-.59z" fill="#0EAD44"/>
  <path d="M2 3h9c0.828 0 1.5.672 1.5 1.5v9c0 .828-0.672 1.5-1.5 1.5H5.904H2C1.172 15 0.5 14.328 0.5 13.5V4.5C0.5 3.672 1.172 3 2 3zm6.138 6.512L9.383 10.757c0.075.125.125.227.125.333 0 .105-0.05.207-.125.282l-0.283.283c-0.242.21-0.616.337-1.017.378-0.117.02-0.234.02-0.35 0-0.256 0-0.51-0.045-0.748-0.122-0.79-0.294-1.58-0.842-2.01-1.526-0.675-0.74-1.176-1.54-1.378-2.35-0.19-0.75-0.19-1.47 0-2.22.19-.74.71-1.35 1.378-2.1l0.383-.383c0.125-.125.227-.125.35 0s.125.227 0 .35l-1.245 1.245c-0.075.075-0.125.177-0.125.28 0 .103.05.205.125.28l-0.283.283c-0.242.21-0.44.686-0.1 1.14.34.453.893.908 1.346 1.36.453.453 0.915.6 1.09.495l0.283-.283c0.175-.175.277-.175.452 0 .175.175.175.277 0 .452l-0.283.283c-0.34.34.34.867.793 1.32.453.453.915.6 1.09.495l0.283-.283c0.175-.175.277-.175.452 0 .175.175.175.277 0 .452z" fill="#0EAD44" fill-rule="evenodd"/>
</svg>