<svg xmlns="http://www.w3.org/2000/svg" viewBox="0 0 121 120" height="120" width="121">
  <path fill="#DCE3F3" d="M99.14 57L86.85 38.56c-.72-.53-1.71-.94-2.87-1.1-1.16-.16-2.33-.16-3.5-.16H40.78c-1.17 0-2.33.02-3.5.16-1.16.16-2.15.57-2.87 1.1L21.86 57c-.98.61-1.59 1.71-1.59 2.94v35.56c0 2.23 1.02 4.27 2.84 5.78 1.82 1.5 4.26 2.34 6.68 2.34h64c2.42 0 4.86-.84 6.68-2.34 1.82-1.5 2.84-3.55 2.84-5.78V61.44c0-1.23-.61-2.33-1.59-2.94l-17.28-18.44c-.72-.53-1.71-.94-2.87-1.1-1.16-.16-2.33-.16-3.5-.16H40.78c-1.17 0-2.33.02-3.5.16-1.16.16-2.15.57-2.87 1.1L21.86 57c-.98.61-1.59 1.71-1.59 2.94v35.56c0 2.23 1.02 4.27 2.84 5.78 1.82 1.5 4.26 2.34 6.68 2.34h64c2.42 0 4.86-.84 6.68-2.34 1.82-1.5 2.84-3.55 2.84-5.78V61.44c0-1.23-.61-2.33-1.59-2.94l-17.28-18.44zM76.5 86.6H44.5c-.47 0-.93-.1-1.38-.27-.44-.17-.85-.42-1.18-.75-.33-.33-.58-.74-.75-1.18-.17-.45-.27-.92-.27-1.38 0-.47.1-.93.27-1.38.17-.44.42-.85.75-1.18.33-.33.74-.58 1.18-.75.45-.17.92-.27 1.38-.27h32c.47 0 .93.1 1.38.27.44.17.85.42 1.18.75.33.33.58.74.75 1.18.17.45.27.92.27 1.38 0 .47-.1.93-.27 1.38-.17.44-.42.85-.75 1.18-.33.33-.74.58-1.18.75-.45.17-.92.27-1.38.27zM28.9 59.4L40.5 42.2h40l11.6 17.2H28.9z"/>
  <path fill="#DCE3F3" d="M57.02 11h6.95v17.78h-6.95V11zm-37.52 10l6.22-3.17 6.59 13.48-6.22 3.18-6.59-13.48zm69.19 10.32l6.59-13.48 6.28 3.18-6.59 13.48-6.28-3.18z"/>
</svg>