<svg xmlns="http://www.w3.org/2000/svg" viewBox="0 0 12 12" height="12" width="12">
  <circle cx="6" cy="6" r="4.75" fill="#FF9900" stroke="#ffffff" stroke-width="0.5"/>
  <path fill="#ffffff" d="M5.631 7.082c0-.159.005-.309.014-.44.011-.131.033-.262.066-.39.033-.128.08-.251.143-.371.063-.12.15-.235.26-.338.11-.104.219-.204.328-.296.109-.091.21-.179.304-.262.093-.084.176-.164.249-.241.073-.076.137-.155.191-.238.054-.083.097-.17.13-.262.033-.092.055-.188.065-.29h1.28c-.118.433-.259.83-.497 1.19-.238.36-.55.65-.926.87-.377.22-.778.35-1.204.39-.453.04-.88.01-1.28-.09-.398-.1-.768-.27-1.11-.51-.342-.24-.648-.55-.918-.93-.27-.38-.495-.82-.675-1.32-.18-.5-.27-1.05-.27-1.65 0-.667.214-1.267.642-1.8.429-.534.95-.966 1.564-1.296.614-.33 1.296-.5 2.046-.5.723 0 1.37.17 1.94.51.57.34 1.03.8 1.38 1.38.35.58.57 1.27.66 2.07.09.8-.04 1.54-.39 2.22-.35.68-.82 1.25-1.41 1.72-.59.47-1.27.8-2.04 1-.77.2-1.6.3-2.5.3zM5.519 8.135c0-.135.042-.254.126-.357.084-.103.203-.154.357-.154.153 0 .273.051.36.154.087.103.13.222.13.357 0 .134-.043.254-.13.357-.087.103-.207.154-.36.154-.154 0-.273-.051-.357-.154-.084-.103-.126-.223-.126-.357zm0 0z"/>
</svg>