<svg xmlns="http://www.w3.org/2000/svg" width="14" height="15" viewBox="0 0 14 15"><path fill="#BBBBBB" fill-rule="evenodd" d="M0.818 7.84C0.818 4.427 3.586 1.659 7 1.659c3.414 0 6.182 2.768 6.182 6.181 0 3.413-2.768 6.181-6.182 6.181C3.586 14.022.818 11.254.818 7.84zm8.378-2.196c.182.182.182.478 0 .66L7.659 7.84l1.537 1.537c.182.182.182.478 0 .66-.182.182-.478.182-.66 0L6.999 8.5 5.463 10.037c-.182.182-.478.182-.66 0-.182-.182-.182-.478 0-.66L6.339 7.84 4.803 6.303c-.182-.182-.182-.478 0-.66.182-.182.478-.182.66 0L6.999 7.18l1.537-1.537c.182-.182.478-.182.66 0 .182.182.182.478 0 .66z"/></svg>