<svg xmlns="http://www.w3.org/2000/svg" width="24" height="24" viewBox="0 0 24 24"><path d="M10.404 3.407a.75.75 0 00-.611.99c-1.61 1.19-5.276 2.12-3.92 3.83a.75.75 0 01-.63.63c-.95.9-1.23 1.43-1.43 1.74a.75.75 0 00.33.99c.95.8 1.81 2.02-.35 3.85a.75.75 0 00-.08.62l1.145 1.792a.75.75 0 01.18.63c1.11 1.11 4.22.57 5.518 4.36a.75.75 0 00.272.37h2.278a.75.75 0 00.272-.37c1.3-3.79 4.41-3.25 5.518-4.36a.75.75 0 01.18-.63l1.145-1.792a.75.75 0 00-.08-.62c-.53-1.83 1.39-3.05-.35-3.85a.75.75 0 00.33-.99c-.2-.31-.48-.84-1.43-1.74a.75.75 0 01-.63-.63c-1.61-1.71-5.276-2.64-3.92-3.83a.75.75 0 00-.611-.99H10.935a.75.75 0 00-.531-.407zM12 14.5a2 2 0 11-4 0 2 2 0 014 0z" fill="none" stroke="#222222" stroke-width="2"/></svg>