<svg width="30" height="30" viewBox="0 0 30 30" xmlns="http://www.w3.org/2000/svg">
  <path d="M5,7.5 C5,6.119 6.119,5 7.5,5 H11.5 C12.881,5 14,6.119 14,7.5 V11.5 C14,12.881 12.881,14 11.5,14 H7.5 C6.119,14 5,12.881 5,11.5 V7.5 Z" fill="#222222"/>
  <path d="M5,18.5 C5,17.119 6.119,16 7.5,16 H11.5 C12.881,16 14,17.119 14,18.5 V22.5 C14,23.881 12.881,25 11.5,25 H7.5 C6.119,25 5,23.881 5,22.5 V18.5 Z" fill="#222222"/>
  <path d="M16,9.5 C16,7.015 18.015,5 20.5,5 C22.985,5 25,7.015 25,9.5 C25,11.985 22.985,14 20.5,14 C18.015,14 16,11.985 16,9.5 Z" fill="#222222"/>
  <path d="M16,18.5 C16,17.119 17.119,16 18.5,16 H22.5 C23.881,16 25,17.119 25,18.5 V22.5 C25,23.881 23.881,25 22.5,25 H18.5 C17.119,25 16,23.881 16,22.5 V18.5 Z" fill="#222222"/>
</svg>