<svg width="73" height="72" viewBox="0 0 73 72" xmlns="http://www.w3.org/2000/svg">
  <path d="M55.322 47.404c-4.974.555-8.842 4.774-8.842 9.896 0 2.748 1.113 5.236 2.912 7.038H31.212l-.015.001H8.588C7.739 61.15 6.995 60.406 6.995 59.556c0-.852.744-1.536 1.593-1.536h7.753V30.879c0-.43.213-.844.638-1.07l12.64-9.1v-11.1c0-.638.318-1.161.849-1.38.531-.218 1.17-.124 1.701.194l13.276 9.347c.325.319.538.743.538 1.22v16.964l8.242 6.16c.425.319.637.744.637 1.275v4.922zm-25.703 0h-10.091V31.729L29.619 24.631v36.519z" fill="#3CBD45"/>
  <path d="M56.5 65c4.418 0 8.001-3.582 8.001-8s-3.583-8-8.001-8-8.001 3.582-8.001 8 3.583 8 8.001 8zm-1.503-4.589L52.293 57.707c-.391-.391-.391-1.023 0-1.414s1.023-.391 1.414 0l2.109 2.109 3.544-3.543c.39-.39 1.022-.39 1.412 0 .39.39.39 1.022 0 1.412l-4.137 4.137c-.39.39-1.022.39-1.412 0z" fill="#3CBD45"/>
</svg>