<svg width="32" height="32" viewBox="0 0 32 32" xmlns="http://www.w3.org/2000/svg"><path fill="#ffffff" fill-rule="evenodd" d="M6.414 4.586L5 6l2 2h0l13.941 13.942v0L24.799 25.799 26.213 24.385 6.414 4.586zm-2.414 5.414c0-.586.267-1.113.692-1.479L19.896 23.725a2.997 2.997 0 0 1-1.072.275H6.118c-1.052 0-1.882-.895-1.882-1.882v-12zm18.353 7.696L24.77 20.113l1.777.672c.695.273 1.453-.176 1.453-.857v-7.713c0-.71-.695-1.191-1.453-.943l-3.53 1.334c-.392.153-.616.52-.616.929v4.219zm-9.696-4l8.284 8.285v-6.285c0-1.104-.948-2-2.118-2H12.657zm8.284 8.285L19.444 23.439l1.752.467c.74.133 1.543-.37 1.543-1.057v-7.799c0-.69-.74-1.191-1.543-.943l-3.53 1.334c-.392.153-.616.52-.616.929v4.219zm-9.696-8.285v3.473l-4.284 4.285v-6.285c0-1.104.948-2 2.118-2h6.17z"/><g clip-path="M6.414 4.586L5 6l2 2h0l13.941 13.942v0L24.799 25.799 26.213 24.385 6.414 4.586zm-2.414 5.414c0-.586.267-1.113.692-1.479L19.896 23.725a2.997 2.997 0 0 1-1.072.275H6.118c-1.052 0-1.882-.895-1.882-1.882v-12zm18.353 7.696L24.77 20.113l1.777.672c.695.273 1.453-.176 1.453-.857v-7.713c0-.71-.695-1.191-1.453-.943l-3.53 1.334c-.392.153-.616.52-.616.929v4.219zm-9.696-8.285v3.473l-4.284 4.285v-6.285c0-1.104.948-2 2.118-2h6.17z" fill-rule="evenodd"><path fill="#ffffff" d="M5 6l1.497-1.497c.824.727.824 1.668.001 2.495l-1.497-1.497zm1.414-1.414l1.498-1.497c-.398-.398-.91-.622-1.414-.622-.505 0-1.01.224-1.385.622l1.498 1.497zm0 3.118v2.236c.57 0 1.01-.482 1.236-1.107.226-.627.145-1.337-.236-1.795l-1.236 1.236zm0 0v2.236c-.57 0-1.01-.482-1.236-1.107-.226-.627-.145-1.337.236-1.795l1.236 1.236zm9.941 13.94l-1.497 1.497c.606.606 1.517.787 2.308.459.791-.328 1.307-1.201 1.307-2.04v-1.943h-1.941zm0 0l1.498-1.497c-.606-.606-1.517-.787-2.308-.459-.791.328-1.307 1.201-1.307 2.04h1.941zm4.799 4.799l-1.497 1.497c.827.827 2.167.827 2.994 0l-1.497-1.497zm1.414-1.414l1.498-1.497c-.827-.827-2.167-.827-2.994 0l-1.497 1.497zm-20.189 1.074l1.497-1.497c-1.59-1.59-3.09-3.685-3.09-6.03h4.816c0 .033-.001.066-.005.1-.003.033-.017.043-.05.06L1.882 10zm15.204 13.204l1.029 1.852c.581-.32 1.376-.66 1.869-1.706.493-1.047.585-2.188.45-3.23l-1.394 1.497zm4.874-6.612l-1.497 1.497c.214.214.469.379.75.484l1.497-1.497zm-3.997 4.913h-2.118c0 .512.223 1.051.62 1.447l1.497-1.497zm4.196-3.089l-.799 1.981.799-1.981zm-4.196 3.089l-.799 1.981.799-1.981zm0-4.118l.799-1.981.799 1.981zm-9.196 8.196l-.799-1.981-1.497 1.981 1.997-1.981zm0-3.118h0v-4.236h0v4.236zm14.549-12.532l-4.417-2.417-2.427 3.965 2.518 2.572 3.767-3.767zm0 4.302l4.196-4.196-4.196 3.767-3.767 3.767 3.767-3.767zm-17.424 1.92l-3.315 3.315 3.315-1.417 3.315 3.315-3.315-3.315zm3.315 3.315v-4.236h4.236v4.236h-4.236zm-14.236 4.118h14.236V21.882H1.882v4.236zm0-12.118h14.236V10H1.882v12.118zm14.236-6.118l-3.417-2.417-2.427 3.965 2.518 2.572 3.767-3.767zm0 4.302v-6.285h4.236v6.285h-4.236zm0 .118c.04.118.04.236 0 .354.04-.118.04-.236 0-.354h4.236c0-2.427-2.236-4.236-4.236-4.236v4.236zm-10.118 0h10.118V5.882H12.657v10.118zm0 0c.04.118.04.236 0 .354.04-.118.04-.236 0-.354h4.236c0-1.104-1.047-2-2.118-2v2.118zm-4.118 0h4.118V5.882H12.657v5.882zm0 0c.04.118.04.236 0 .354.04-.118.04-.236 0-.354h4.236c0-1.104-1.047-2-2.118-2v2.118zm-4.118 0h4.118V10H12.657v6.118zm0-10.118h4.236V10H12.657V10zm0 0c.04.118.04.236 0 .354.04-.118.04-.236 0-.354h4.236c0-2.427-2.236-4.236-4.236-4.236V10zm-10.236 12.118h14.236V21.882H1.882v4.236zm0-14.118h14.236V10H1.882v12.118zm0-12.118h14.236V10H1.882v12.118zm14.236-6.118l-3.417-2.417-2.427 3.965 2.518 2.572 3.767-3.767zM18.824 26.118h4.236V21.882H18.824v4.236zm-14.236 0h4.236V21.882H4.588v4.236zm-2.706 4.118c.706 0 1.426-.196 2.05-.576l-4.15-4.15c.003.013.01.022.01.036.002.014.01.023.01.025l-2.706-4.118zm14.236-14.118H6.118v5.236h12.706V10H6.118zm-14.236 0h12.706v5.236H1.882v-5.236zm0 12.118h12.706V21.882H1.882v4.236zm0-14.118h12.706V10H1.882v12.118z"/></g></svg>