<svg width="30" height="30" viewBox="0 0 30 30" xmlns="http://www.w3.org/2000/svg">
  <path d="M5.75 7.5C5.75 6.534 6.534 5.75 7.5 5.75h4c0.966 0 1.75 0.784 1.75 1.75v4c0 0.966-0.784 1.75-1.75 1.75h-4c-0.966 0-1.75-0.784-1.75-1.75v-4z" stroke-width="1.5" fill="none" stroke="#666666"/>
  <path d="M5.75 18.5C5.75 17.534 6.534 16.75 7.5 16.75h4c0.966 0 1.75 0.784 1.75 1.75v4c0 0.966-0.784 1.75-1.75 1.75h-4c-0.966 0-1.75-0.784-1.75-1.75v-4z" stroke-width="1.5" fill="none" stroke="#666666"/>
  <path d="M16.75 9.5C16.75 7.429 18.429 5.75 20.5 5.75c2.071 0 3.75 1.679 3.75 3.75s-1.679 3.75-3.75 3.75c-2.071 0-3.75-1.679-3.75-3.75s1.679-3.75 3.75-3.75z" stroke-width="1.5" fill="none" stroke="#666666"/>
  <path d="M16.75 18.5C16.75 17.534 17.534 16.75 18.5 16.75h4c0.966 0 1.75 0.784 1.75 1.75v4c0 0.966-0.784 1.75-1.75 1.75h-4c-0.966 0-1.75-0.784-1.75-1.75v-4z" stroke-width="1.5" fill="none" stroke="#666666"/>
</svg>