<svg width="33" height="32" viewBox="0 0 33 32" xmlns="http://www.w3.org/2000/svg">
  <path fill="#ffffff" fill-rule="evenodd" d="M12.054 5.5c-.43 0-.812.275-.948.816L10.333 8.5H5.333C4.781 8.5 4.333 8.948 4.333 9.5v16c0 .552.448 1 1 1h22c.553 0 1-.448 1-1V9.5c0-.552-.447-1-1-1H22.333l-.778-2.316c-.137-.41-.53-.816-.948-.816H12.054zm0 0"/>
  <path stroke-width="1.5" fill="none" stroke="#333333" stroke-linecap="round" d="M14.333 12.946c.618-.286 1.306-.446 2.032-.446 2.672 0 4.838 2.167 4.838 4.84 0 1.017-.313 1.96-.849 2.739"/>
  <path fill="#333333" d="M19.225 21.362c.019.109.123.181.238.162l2.725-.733c.125-.033.176-.158.029-.237l-3.21-2.65c-.147-.12-.348-.095-.378.072l.145 2.725zm0 0"/>
  <path stroke-width="1.5" fill="none" stroke="#333333" stroke-linecap="round" d="M18.096 22.054c-.617.286-1.305.446-2.03.446-2.673 0-4.839-2.167-4.839-4.84 0-1.017.313-1.96.849-2.739"/>
  <path fill="#333333" d="M13.205 13.638c-.02-.109-.124-.181-.238-.162l-2.725.733c-.125.033-.176.158-.029.237l3.21 2.65c.147.12.348.095.378-.072l-.145-2.725zm0 0"/>
</svg>