<svg xmlns="http://www.w3.org/2000/svg" width="32" height="32" viewBox="0 0 32 32"><path d="M27.415 22.792L23.111 17.662c-.263-.53-.835-.89-1.44-.96-.606-.07-1.22.07-1.73.33l-1.165 1.28c-.74.754-2.478-.24-3.96-2.107-1.483-1.867-1.84-3.83-1.17-4.49l1.566-1.98c.21-.26.4-.6.43-.98.03-.38-.1-.76-.34-1.02L11.373 3.674c-.26-.31-.68-.49-1.1-.46-.42.03-.83.16-1.09.42L8.064 4.464c-.88.92-1.33 1.92-1.62 3.17-.29 1.26-.27 2.58.07 4.04.69 2.873 2.31 6.035 4.673 8.85 2.364 2.816 5.194 4.968 7.97 6.054 1.82.71 3.8.95 4.72.82.316-.02.633-.03.95-.03.376-.02.75-.26 1.01-.58l1.165-1.08c.21-.21.4-.53.44-.85.04-.32-.07-.64-.28-.89z" fill="#3CBD45"/></svg>