<svg xmlns="http://www.w3.org/2000/svg" viewBox="0 0 32 32" width="32" height="32"><path d="M27.552 23.06c-1.306-1.293-4.823-5.248-5.781-5.248-.97 0-.66 1.694-1.346 2.373-.75.95-2.548-.886-4.15-2.608-1.662-1.72-2.51-2.605-2.124-3.316l1.125-1.074c.287-.267.45-.62.45-1.02 0-.4-.163-.753-.45-1.02L9.764 5.444a1.49 1.49 0 00-.83-.444c-.272 0-.544.16-.83.444L6.51 6.518a3.49 3.49 0 00-3.47 3.01c-.132.874.106 2.19.528 3.612.358 1.456 1.65 4.555 4.271 7.15 2.621 2.595 4.784 3.906 7.667 4.746 2.874.427 6.516-.366 7.57-.975.754-.597 1.233-1.167 1.233-2.24 0-.398-.161-.777-.447-1.02z" fill="#333333"/></svg>