<svg width="32" height="32" viewBox="0 0 32 32" xmlns="http://www.w3.org/2000/svg">
  <path d="M6.5 12c0-0.276 0.224-0.5 0.5-0.5h3.197c0.296 0 0.586-0.112 0.831-0.248L16.723 7.452c0.332-0.229 0.777-0.067 0.777 0.352v16.264c0 0.419-0.445 0.657-0.777 0.436L11.029 20.752c-0.245-0.112-0.535-0.188-0.831-0.188H7c-0.276 0-0.5-0.224-0.5-0.5v-8z" fill="#333333" stroke="#333333" stroke-width="1"/>
  <path d="M24.395 10c1.021 1.765 1.605 3.814 1.605 6 0 2.186-0.584 4.235-1.605 6" stroke="#333333" stroke-width="1.5" fill="none" stroke-linecap="round"/>
  <path d="M21.326 13c0.432 0.909 0.674 1.926 0.674 3 0 1.074-0.242 2.091-0.674 3" stroke="#333333" stroke-width="1.5" fill="none" stroke-linecap="round"/>
</svg>