<svg xmlns="http://www.w3.org/2000/svg" viewBox="0 0 25 24" width="25" height="24">
  <path fill="#959595" d="M8 11h1.5v1.5H8v-1.5zm1.5 3.5v1.5h-1.5v-1.5h1.5zm3.75-3.5h1.5v1.5h-1.5v-1.5zm0 3.5v1.5h-1.5v-1.5h1.5zm3.75-3.5h1.5v1.5h-1.5v-1.5zm0 3.5v1.5h-1.5v-1.5h1.5zM6.5 4h12c1.105 0 2 0.895 2 2v12c0 1.105-0.895 2-2 2H6.5c-1.105 0-2-0.895-2-2V6c0-1.105 0.895-2 2-2zm-0.5 2v1h13v-1c0-0.276-0.224-0.5-0.5-0.5H6.5c-0.276 0-0.5 0.224-0.5 0.5zm0 2.5v9.5c0 0.276 0.224 0.5 0.5 0.5h12c0.276 0 0.5-0.224 0.5-0.5V8.5H6z"/>
</svg>