<svg xmlns="http://www.w3.org/2000/svg" width="32" height="32" viewBox="0 0 32 32"><path d="M5.394 6.807L6.808 5.393 26.607 25.192 25.192 26.606 5.394 6.807z" fill="#ffffff"/><path d="M6.783 11.023c-.448.1-.783.5-.783 1.977v8c0 .552.448 1 1 1h3.197c.198 0 .39.058.554.167l5.693 3.796c.665.443 1.555-.076 1.555-.798v-1.83L6.783 11.023z" fill="#ffffff"/><path d="M25.582 21.338c.85-1.625 1.268-3.434 1.268-5.338 0-2.679-.612-5.208-1.706-7.376-.17-.35-.522-.52-.981-.35-.458.17-.554.63-.355 1C24.702 12.029 25.25 13.949 25.25 16c0 2.484-.65 3.9-1.559 5.197l1.131 1.15z" fill="#ffffff"/><path d="M23.701 22.285l.418.408c-.02-.008-.038-.016-.057-.027-.23-.136-.41-.36-.41-.63 0-.23.18-.41.41-.41.23 0 .41.18.41.41-.03.23-.14.41-.3.52z" fill="#ffffff"/><path d="M22.436 18.191c.204-.695.314-1.431.314-2.191 0-1.686-.467-3.313-1.236-4.822-.13-.272-.51-.41-.89-.23-.38.18-.476.63-.276.95.385 1.91.75 2.819.75.318 0 .631-.026.936l-1.255 1.255z" fill="#ffffff"/><path d="M20.599 19.183l.544.544c-.046-.018-.09-.044-.134-.076-.25-.2-.49-.52-.49-.85 0-.33.24-.51.49-.51.25 0 .49.18.49.51-.04.33-.15.55-.35.75z" fill="#ffffff"/><path d="M18 16.584v2.829l-8.413-8.413h.61c.198 0 .39-.058.554-.167l.847-.6L18 16.584z" fill="#ffffff"/><path d="M18 13.756V7.868c0-1.799-.85-2.279-1.555-1.73L13.347 9.102l4.653 4.654z" fill="#ffffff"/></svg>