<svg width="30" height="30" viewBox="0 0 30 30" xmlns="http://www.w3.org/2000/svg">
  <path d="M14.998 14.286a3.143 3.143 0 1 0 0-6.286 3.143 3.143 0 0 0 0 6.286z" stroke-width="1.5" fill="#222222" stroke="#222222"/>
  <path d="M14.888 15.714c-2.95 0-4.175 1.847-4.175 3.295v.514c0 .163.213.386.476.386h3.661h3.661c.263 0 .476-.223.476-.386v-.514c0-1.448-2.11-3.295-7.175-3.295z" stroke-width="1.5" fill="#222222" stroke="#222222"/>
  <path d="M7.357 6h15.286c.749 0 1.357.608 1.357 1.357v15.286c0 .749-.608 1.357-1.357 1.357H7.357A1.357 1.357 0 0 1 6 22.643V19.5H4.5v3.143A1.357 1.357 0 0 0 5.857 25.5h16.786A1.357 1.357 0 0 0 25.5 24.143V7.357C25.5 5.779 24.221 4.5 22.643 4.5H7.357A1.357 1.357 0 0 0 6 5.857v4.643H4.5V7.357C4.5 6.608 5.108 6 5.857 6h15.286z" fill="#222222" fill-rule="evenodd"/>
  <circle cx="5.35" cy="13.5" r="0.714" fill="#222222"/>
  <circle cx="5.35" cy="16" r="0.714" fill="#222222"/>
</svg>