<svg xmlns="http://www.w3.org/2000/svg" width="31" height="30" viewBox="0 0 31 30"><path d="M24.879 20.565L20.937 16.622c-.18-.183-.42-.315-.688-.315-.266 0-.52.132-.688.315l-.897.896c-.637.507-3.58-.514-5.18-2.95-1.6-2.436-2.103-4.008-1.602-4.515l.896-.896c.18-.183.315-.42.315-.688 0-.266-.135-.52-.315-.688L10.185 5.87c-.18-.183-.42-.315-.688-.315-.266 0-.52.132-.688.315L7.497 6.766c-.76.663-1.163 1.533-1.33 2.59-.165 1.08.009 2.177.358 3.363.65 2.473 2.228 4.977 4.393 7.142 2.114 2.165 4.618 3.744 6.999 4.444.977.21 1.806.34 2.574.34.264 0 .527-.016.79-.048 1.056-.13 1.926-.54 2.588-1.247l.896-.896c.18-.183.315-.42.315-.688 0-.266-.135-.52-.315-.688l-.896-.896c-.18-.183-.42-.315-.688-.315-.266 0-.52.132-.688.315L24.879 20.565z" stroke-width="2.11111" fill="none" stroke="#333333"/></svg>