<svg xmlns="http://www.w3.org/2000/svg" width="19" height="18" viewBox="0 0 19 18"><path d="M2.5 3.75h9c0.414 0 0.75 0.336 0.75 0.75v9c0 0.414-0.336 0.75-0.75 0.75h-5.096V14.25H2.5c-0.414 0-0.75-0.336-0.75-0.75v-9c0-0.414 0.336-0.75 0.75-0.75z" fill="#333333" stroke="#333333" stroke-width="1.5" stroke-linejoin="round" stroke-linecap="square"/><path d="M16.972 5.411l-2.5 1v3.784c0 0.307 0.187 0.583 0.472 0.697l2.5 1.188c0.492 0.196 1.028-0.196 1.028-0.697V6.108c0-0.501-0.536-0.893-1.028-0.697z" fill="#333333"/></svg>