<svg width="40" height="48" viewBox="0 0 40 48" xmlns="http://www.w3.org/2000/svg">
  <path d="M0 4C0 1.791 1.791 0 4 0h22.343c1.061 0 2.078.421 2.828 1.172L38.828 10.828C39.579 11.579 40 12.596 40 13.657v30.343C40 46.209 38.209 48 36 48H4c-2.209 0-4-1.791-4-4V4zm0 0" fill="#29AD66"/>
  <path d="M38.828 10.828L29.172 1.172C28.83 0.83 28.432.556 28.001.359v9.641c0 1.105.895 2 2 2h9.641c-.202-.444-.527-.853-.828-1.171z" fill="#0F7C41" fill-rule="evenodd"/>
  <path d="M29 36.75c-.857 0-1.5-.551-1.5-1.287V25.537c0-.755.643-1.287 1.5-1.287s1.5.532 1.5 1.287v9.926c0 .736-.643 1.287-1.5 1.287zm-4.5-2.482c-.857 0-1.5-.551-1.5-1.287V28.018c0-.755.643-1.287 1.5-1.287s1.5.532 1.5 1.287v4.964c0 .736-.643 1.287-1.5 1.287zm-8.5 3.763c-.857 0-1.5-.551-1.5-1.287V24.342c0-.755.643-1.287 1.5-1.287s1.5.532 1.5 1.287v12.369c0 .736-.643 1.287-1.5 1.287zm-5.5-4.963c-.857 0-1.5-.551-1.5-1.287V24.342c0-.755.643-1.287 1.5-1.287s1.5.532 1.5 1.287v12.369c0 .736-.643 1.287-1.5 1.287zm-4.5-3.963c-.857 0-1.5-.551-1.5-1.287V28.018c0-.755.643-1.287 1.5-1.287s1.5.532 1.5 1.287v4.964c0 .736-.643 1.287-1.5 1.287zm-2 0c-.857 0-1.5-.551-1.5-1.287V28.018c0-.755.643-1.287 1.5-1.287s1.5.532 1.5 1.287v4.964c0 .736-.643 1.287-1.5 1.287z" fill="#ffffff"/>
</svg>