<svg width="31" height="31" viewBox="0 0 31 31" xmlns="http://www.w3.org/2000/svg">
  <path d="M14.06 5.952c-.373 1.199-1.41 3.307-6.235 1.329-.26-.153-.61.097-.68.305-.65 1.002-.83 1.589-.59 1.934.24.265.313.63.549.84.235.198 1.309 3.462-1.702 6.605-.12.22-.08.52.16.65l1.27 1.99c.15.18.44.274.73.2s2.453-.4 3.895 1.297c.08.13.2.2.33.2h2.52c.14 0 .25-.07.33-.2 1.44-1.697 3.895-1.297 4.145-1.297.29 0 .58-.094.73-.274l1.27-1.99c.24-.13.3-.43.16-.65-2.01-3.143.38-5.31 1.53-6.605.236-.21.31-.575.07-.84-.236-.265-1.31-3.42-.08-6.563-.08-.34-.31-.53-.58-.53h-2.36c-.22 0-.41.19-.44.43z" stroke-width="1.5" fill="none" stroke="#666666"/>
  <path d="M15.833 18.639c-1.733 0-3.139-1.405-3.139-3.139 0-1.734 1.406-3.14 3.139-3.14s3.14 1.406 3.14 3.14c0 1.734-1.406 3.139-3.14 3.139z" stroke-width="1.5" fill="none" stroke="#666666"/>
</svg>