<svg xmlns="http://www.w3.org/2000/svg" width="18" height="19" viewBox="0 0 18 19"><path d="M5.103 10.406L5.059 10.586 5.059 10.772 5.059 10.99 2.536 10.99 2.536 10.772c0-.259.085-.516.255-.756.172-.172.25-.244.332-.295l.002-.001.453-.245.447-.245c1.225-.669 2.943-1.08 4.849-1.08s3.624.411 4.85 1.08l.001.001c.405.431.814.782 1.072 1.117.259.248.344.546.344.805v.217l-2.522.001-2.522-.217c0-.259-.085-.516-.255-.756-.172-.172-.25-.244-.332-.295l-.002-.001-.453-.245-.447-.245c-1.225-.669-2.943-1.08-4.849-1.08s-3.624.411-4.85 1.08l-.001.001c-.405.431-.814.782-1.072 1.117-.259.248-.344.546-.344.805v.217l2.522-.001.522-.217c0-.259.085-.516.255-.756.172-.172.25-.244.332-.295l.002-.001.453-.245.447-.245z" fill="#ffffff" stroke="#666666" stroke-width="3.04239"/></svg>