<svg xmlns="http://www.w3.org/2000/svg" width="40" height="40" viewBox="0 0 40 40">
  <path d="M5 0 L35 0 A5 5 0 0 1 40 5 L40 35 A5 5 0 0 1 35 40 L5 40 A5 5 0 0 1 0 35 L0 5 A5 5 0 0 1 5 0 z" fill="#E5E5E5"/>
  <path d="M27.472 16.411 L24.972 17.411 C24.687 17.525 24.5 17.801 24.5 18.108 V21.892 C24.5 22.199 24.687 22.475 24.972 22.589 L27.472 23.589 C27.964 23.786 28.5 23.423 28.5 22.892 V17.108 C28.5 16.577 27.964 16.214 27.472 16.411 Z" fill="#888888"/>
  <path d="M13 14 H22 C22.828 14 23.5 14.672 23.5 15.5 V24.5 C23.5 25.328 22.828 26 22 26 H16.904 H13 C12.172 26 11.5 25.328 11.5 24.5 V15.5 C11.5 14.672 12.172 14 13 14 Z M19.138 20.512 L20.383 21.757 C20.458 21.832 20.5 21.934 20.5 22.04 C20.5 22.146 20.458 22.248 20.383 22.323 L20.1 22.606 C19.891 22.815 19.616 22.942 19.283 22.985 C19.2 22.995 19.117 23 19.034 23 C18.791 23 18.529 22.959 18.252 22.878 C17.5 22.656 16.709 22.158 16.026 21.474 C15.342 20.791 14.844 20 14.622 19.248 C14.512 18.873 14.476 18.527 14.515 18.217 C14.557 17.884 14.685 17.609 14.894 17.4 L15.177 17.117 C15.252 17.042 15.354 17 15.46 17 C15.566 17 15.668 17.042 15.743 17.117 L16.988 18.362 C17.063 18.437 17.105 18.539 17.105 18.645 C17.105 18.751 17.063 18.853 16.988 18.928 L16.705 19.211 C16.544 19.371 16.747 19.847 17.2 20.3 C17.653 20.753 18.115 20.9 18.289 20.795 L18.572 20.512 C18.647 20.437 18.749 20.395 18.855 20.395 C18.961 20.395 19.063 20.437 19.138 20.512 Z" fill="#888888" fill-rule="evenodd"/>
</svg>