<svg xmlns="http://www.w3.org/2000/svg" viewBox="0 0 16 17" width="16" height="17">
  <path fill="#0066FF" d="M4 7.611h1.333v1.333H4V7.611z"/>
  <path fill="#0066FF" d="M5.333 10.722v1.333H4V10.722h1.333z"/>
  <path fill="#0066FF" d="M8.666 7.611v1.333H7.333V7.611h1.333z"/>
  <path fill="#0066FF" d="M8.666 10.722v1.333H7.333V10.722h1.333z"/>
  <path fill="#0066FF" d="M12 7.611v1.333H10.666V7.611h1.334z"/>
  <path fill="#0066FF" d="M12 10.722v1.333H10.666V10.722h1.334z"/>
  <path fill="#0066FF" d="M2.666 1.389h10.667c1.282 0 2.111 0.796 2.111 1.777v10.667c0 .981-.829 1.777-2.111 1.777H2.666C1.685 15.611.889 14.815.889 13.833V3.166c0-.981.786-1.777 1.777-1.777h10.667c.445 0 .555.199.555.444v.889H2.222V3.166c0-.245.199-.444.444-.444h11.111c.245 0 .444.199.444.444v8.444H2.222V5.389c0 .245.199.444.444.444h11.111c.245 0 .444-.199.444-.444V5.389H2.222z"/>
</svg>