<svg xmlns="http://www.w3.org/2000/svg" viewBox="0 0 120 120" width="120" height="120">
  <path fill="#DCE3F3" fill-rule="evenodd" d="M20.5 25a3.5 3.5 0 013.5-3.5h46a3.5 3.5 0 013.5 3.5v14a3.5 3.5 0 01-3.5 3.5h-14a3.5 3.5 0 01-3.5-3.5V25zm0 70a3.5 3.5 0 013.5-3.5h58a3.5 3.5 0 013.5 3.5v3.5a3.5 3.5 0 01-3.5 3.5h-63a3.5 3.5 0 01-3.5-3.5v-70z"/>
  <path fill="#DCE3F3" fill-rule="evenodd" d="M74.5 21l12 12h-10a3.5 3.5 0 01-3.5-3.5v-12z"/>
  <path fill="#DCE3F3" fill-rule="evenodd" d="M60.97 81.47c-6.89-6.89-6.89-18.03 0-24.92 6.88-6.88 18.03-6.88 24.92 0 6.89 6.89 6.89 18.03 0 24.92-3.85 3.85-11.58 4.8-17.61 1.04l11.93 11.93-5.66 5.66-11.82-11.82c-6.74 4.85-15.14 4.13-20.49-1.61zM73.5 82.5c-7.46 0-13.5-6.04-13.5-13.5S66.04 55.5 73.5 55.5 87 61.54 87 69s-6.04 13.5-13.5 13.5z"/>
</svg>