<svg width="24" height="24" viewBox="0 0 24 24" xmlns="http://www.w3.org/2000/svg">
  <path d="M4.125 5.125L14.625 5.125A1.625 1.625 0 0 1 16.25 6.75L16.25 17.25A1.625 1.625 0 0 1 14.625 18.875L4.125 18.875A1.625 1.625 0 0 1 2.5 17.25L2.5 6.75A1.625 1.625 0 0 1 4.125 5.125Z" stroke-width="2" fill="none" stroke="#222222"/>
  <path d="M16.266 9.047L21.124 6.314C21.299 6.215 21.516 6.342 21.516 6.543V17.457C21.516 17.658 21.299 17.785 21.124 17.686L16.266 14.953" stroke-width="2" fill="none" stroke="#222222"/>
  <path d="M12.402 13.845L11.095 12.538C11.016 12.459 10.909 12.415 10.797 12.415C10.686 12.415 10.579 12.459 10.5 12.538L10.203 12.835C10.021 12.945 9.536 12.791 9.06 12.315C8.584 11.839 8.371 11.34 8.54 11.171L8.837 10.874C8.915 10.795 8.96 10.689 8.96 10.577C8.96 10.466 8.915 10.359 8.837 10.28L7.529 8.973C7.451 8.894 7.344 8.85 7.232 8.85C7.121 8.85 7.014 8.894 6.935 8.973L6.638 9.27C6.419 9.49 6.285 9.778 6.241 10.128C6.2 10.453 6.237 10.817 6.353 11.21C6.585 12 7.109 12.83 7.827 13.548C8.544 14.266 9.375 14.789 10.164 15.021C10.455 15.107 10.73 15.15 10.985 15.15C11.072 15.15 11.16 15.145 11.246 15.134C11.596 15.09 11.885 14.956 12.105 14.736L12.402 14.439C12.48 14.361 12.525 14.254 12.525 14.142C12.525 14.031 12.48 13.924 12.402 13.845Z" fill="#222222"/>
  <path d="M10.593 13.483C10.646 13.451 10.694 13.413 10.738 13.37L10.797 13.31L11.63 14.142L11.57 14.202C11.485 14.287 11.359 14.358 11.152 14.384C11.097 14.391 11.042 14.394 10.986 14.394H10.985C10.814 14.394 10.612 14.365 10.378 14.296L10.377 14.296C9.735 14.107 9.01 13.663 8.361 13.014C7.712 12.365 7.267 11.64 7.078 10.997L7.078 10.997C6.985 10.679 6.966 10.422 6.991 10.223L6.991 10.223C7.017 10.016 7.088 9.89 7.173 9.805C7.173 9.805 7.173 9.805 7.173 9.805L7.232 9.745L8.065 10.577L8.005 10.637C8.005 10.637 8.005 10.637 8.005 10.637C7.76 10.881 7.718 11.186 7.728 11.39C7.737 11.594 7.799 11.783 7.867 11.936C8.006 12.247 8.24 12.565 8.525 12.85C8.821 13.146 9.143 13.365 9.452 13.493C9.606 13.557 9.777 13.606 9.953 13.621C10.118 13.634 10.361 13.623 10.593 13.483Z" stroke-linejoin="round" stroke-width="1.512" fill="none" stroke="#222222" stroke-linecap="square"/>
</svg>