<svg xmlns="http://www.w3.org/2000/svg" viewBox="0 0 24 24" width="24" height="24">
  <path fill="#959595" fill-rule="evenodd" d="M6 4.5C3.101 4.5 0.75 6.851 0.75 9.75c0 2.899 2.351 5.25 5.25 5.25h4.5c2.378 0 4.387-1.581 5.033-3.75H13.938c-.579 1.324-1.899 2.25-3.562 2.25H6c-2.071 0-3.75-1.679-3.75-3.75S3.929 6 6 6h4.5c.844 0 1.624.279 2.25.75h2.059c-.86-1.36-2.284-2.25-3.809-2.25H6z"/>
  <path fill="#959595" fill-rule="evenodd" d="M13.5 8.25c-2.378 0-4.387 1.581-5.033 3.75h1.595c.579-1.324 1.899-2.25 3.562-2.25h4.5c2.071 0 3.75 1.679 3.75 3.75 0 2.071-1.679 3.75-3.75 3.75h-4.5c-.857 0-1.67-.558-2.242-1.448-.126.123-.274.25-.459.25H9.191c.949 1.36 2.525 2.25 4.309 2.25h4.5c2.899 0 5.25-2.351 5.25-5.25 0-2.899-2.351-5.25-5.25-5.25h-4.5zM8.467 15h1.595c-.199-.459-.312-.967-.312-1.5h-1.312c0 .521.076 1.025.312 1.5z"/>
</svg>