<svg width="40" height="48" viewBox="0 0 40 48" xmlns="http://www.w3.org/2000/svg"><path fill="#FF7E15" d="M0 4C0 1.791 1.791 0 4 0h22.343c1.061 0 2.078.421 2.828 1.172L38.828 10.828C39.579 11.579 40 12.596 40 13.657v30.343C40 46.209 38.209 48 36 48H4c-2.209 0-4-1.791-4-4V4zm38.828-6.828L29.172 1.172C28.83.83 28.432.556 28.001.359V10c0 1.105.895 2 2 2h9.641c-.203-.432-.485-.829-.828-1.172z" fill-rule="evenodd"/><path fill="#D7650A" d="M12.5 17.008h9.032c1.453 0 2.638.21 3.558.631.92.42 1.618 1.02 2.105 1.716.487.696.82 1.384 1.002 2.13.181.746.27 1.434.27 2.065 0 .63-.089 1.319-.27 2.065-.182.746-.515 1.434-1.002 2.13-.487.696-1.185 1.296-2.105 1.716-.92.42-2.105.631-3.558.631H16.084v10.781H12.5V17.008zm3.584 9.692h5.247c.402 0 .813-.072 1.233-.216.42-.145.802-.35 1.145-.616.363-.286.643-.646.84-1.071.197-.425.295-.906.295-1.442 0-.536-.098-1.017-.295-1.442-.197-.425-.477-.785-.84-1.071-.343-.266-.725-.471-1.145-.616-.42-.144-.831-.216-1.233-.216H16.084v6.768z" fill-rule="evenodd"/></svg>