<svg width="30" height="30" viewBox="0 0 30 30" xmlns="http://www.w3.org/2000/svg">
  <path d="M14.998 14.286a2.143 2.143 0 100-4.286 2.143 2.143 0 000 4.286z" stroke-width="1.5" fill="none" stroke="#666666"/>
  <path d="M14.888 15.714c-2.95 0-4.175 1.748-4.175 3.296v.514c0 .263.213.476.476.476h3.661h3.661c.263 0 .476-.213.476-.476v-.514c0-1.548-1.225-3.296-4.175-3.296z" stroke-width="1.5" fill="none" stroke="#666666"/>
  <path d="M7.357 6h15.286c.749 0 1.357.608 1.357 1.357v15.286c0 .749-.608 1.357-1.357 1.357H7.357A1.357 1.357 0 016 22.643V19.5H4.5v3.143A1.357 1.357 0 015.357 24H22.643A1.357 1.357 0 0124 22.643V7.357C24 6.608 23.392 6 22.643 6H7.357z" fill="#666666"/>
  <circle cx="5.45" cy="13.5" r="0.714" fill="#666666"/>
  <circle cx="5.45" cy="16" r="0.714" fill="#666666"/>
</svg>