<svg xmlns="http://www.w3.org/2000/svg" width="30" height="30" viewBox="0 0 30 30">
  <path fill="#222222" fill-rule="evenodd" d="M7.143 6.393a3.14 3.14 0 0 0-3.143 3.143v15.8c0 .31.336.502.603.346l2.659-1.456c.533-.287 1.084-.45 1.635-.45h6.143h7.857c1.736 0 3.143-1.407 3.143-3.143v-11c0-1.736-1.407-3.143-3.143-3.143H7.143zm2.356 10.142c.83 0 1.5-.67 1.5-1.5s-.67-1.5-1.5-1.5-1.5.67-1.5 1.5.67 1.5 1.5 1.5zm7-1.5c0 .83-.67 1.5-1.5 1.5s-1.5-.67-1.5-1.5.67-1.5 1.5-1.5 1.5.67 1.5 1.5zm4 1.5c.83 0 1.5-.67 1.5-1.5s-.67-1.5-1.5-1.5-1.5.67-1.5 1.5.67 1.5 1.5 1.5z"/>
</svg>