<svg xmlns="http://www.w3.org/2000/svg" width="24" height="24" viewBox="0 0 24 24"><path d="M20.649 17.272L16.914 13.537c-.176-.18-.41-.296-.66-.296-.25 0-.48.116-.653.296l-.848.848c-.57.413-1.746.15-2.624-.76-.878-.91-1.36-2.34-.878-3.22l.85-.85c.225-.225.3-.54.3-.87 0-.33-.075-.645-.3-.87L6.728 3.351c-.126-.125-.29-.2-.464-.2-.175 0-.34.075-.465.2l-.848.848c-.727.427-1.04 1.252-1.114 2.252-.076.93.093 1.97.423 3.093.663 2.355 2.16 4.728 4.21 6.778 2.05 2.05 4.423 3.547 6.678 4.21.63.143 1.415.21 2.155.21.25 0 .5-.015.75-.054.65-.075 1.475-.33 2.102-.982l.848-.848c.225-.225.35-.54.35-.87 0-.33-.125-.645-.35-.87z" fill="#4891FF"/></svg>