<svg xmlns="http://www.w3.org/2000/svg" width="66" height="66" viewBox="0 0 66 66">
  <circle cx="33" cy="33" r="33" fill="#000000" fill-opacity="0.2"/>
  <circle cx="33" cy="33" r="32.5" stroke="#000000" stroke-width="1" fill="none" stroke-opacity="0.1"/>
  <path d="M28.507 32.748c.124 2.288 1.957 4.121 4.245 4.245l-4.245-4.245zm-4.493 7.252c.826 0 1.618-.143 2.353-.398l1.528 1.528c-.888.525-1.98.809-3.122.922v4.055c0 .552-.448 1-1 1s-1-.448-1-1v-4.055c-6.5-.503-12-6.387-12-12.955v-2c0-.552.448-1 1-1s1 .448 1 1v2c0 3.866 3.134 7 7 7h1c0 3.866 3.134 7 7 7h1.5v-4.5c0-.276.224-.5.5-.5s.5.224.5.5v4.5h1.5c0 .276.224.5.5.5s.5-.224.5-.5v-4.5c0-.276.224-.5.5-.5s.5.224.5.5v4.5h1.5c0 .276.224.5.5.5s.5-.224.5-.5v-4.5c0-.276.224-.5.5-.5s.5.224.5.5v2.5c0 2.485-2.015 4.5-4.5 4.5h-7.5zm9.687-5.404l1.425 1.426 1.414-1.414-19.795-19.795-1.414 1.414 6.105 6.105v0l6.578 6.578c0 0 0 0 0 0l2.114 2.114c0 0 0 0 0 0 0 0 2.114 2.114 2.114 2.114s0 0 0 0l2.114 2.114c0 0 0 0 0 0 0 0 2.114 2.114 2.114 2.114h-7.5zm4.5-9.5c0 .739-.081 1.467-.224 2.18l-8.954-8.954c.123-3.11 2.087-5.748 5.492-5.748 3.485 0 6.5 2.515 6.5 5.5v8.5zm-4.5-1c0 .276-.224.5-.5.5s-.5-.224-.5-.5v-8.5c0-2.485-2.015-4.5-4.5-4.5-2.485 0-4.5 2.015-4.5 4.5v8.5c0 .276-.224.5-.5.5s-.5-.224-.5-.5v-8.5c0-2.485 2.015-4.5 4.5-4.5s4.5 2.015 4.5 4.5v8.5c0 .276-.224.5-.5.5s-.5-.224-.5-.5v-8.5z" fill="#ffffff" fill-rule="evenodd"/>
</svg>