<svg xmlns="http://www.w3.org/2000/svg" width="121" height="120" viewBox="0 0 121 120">
  <path d="M21 25c0-2.21 1.79-4 4-4h46v14c0 1.1 0.9 2 2 2h14V51.76c-9.48-6.44-18.84-6.08-25.36 1.65-7.45 8.45-7.45 22.15 0 30.6 6.62 6.62 15.47 8.05 23.48 4.29l3.88 3.87v2.87c0 2.21-1.79 4-4 4H25c-2.21 0-4-1.79-4-4V25zm54 0l12 12h-10c-1.1 0-2-.9-2-2v-12z" fill="#DCE3F3"/>
  <path d="M75 21l12 12h-10c-1.1 0-2-.9-2-2V21z" fill="#DCE3F3"/>
  <path d="M61.47 81.47c-6.89-6.89-6.89-18.03 0-24.92 6.88-6.88 18.04-6.88 24.92 0 5.74 5.74 6.69 14.47 2.84 21.2l11.03 11.03-5.61 5.66-11.87-11.87c-4.75 4.65-12.14 4.01-16.47-1.47zM74 82.5c-7.46 0-13.5-7.04-13.5-15.5s6.04-15.5 13.5-15.5 13.5 7.04 13.5 15.5-6.04 15.5-13.5 15.5z" fill="#DCE3F3"/>
</svg>