<svg xmlns="http://www.w3.org/2000/svg" width="14" height="14" viewBox="0 0 14 14">
  <path fill="#BBBBBB" fill-rule="evenodd" d="M0.818 7C0.818 3.586 3.586 0.818 7 0.818c3.413 0 6.181 2.768 6.181 6.181 0 3.413-2.768 6.181-6.181 6.181C3.586 13.181 0.818 10.413 0.818 7zm8.378-2.197c0.181.182 0.181.478 0 0.66l-1.537 1.536 1.537 1.537c0.181.182 0.181.478 0 0.66-.182.181-.478.181-.66 0L6.999 7.659l-1.536 1.537c-.182.181-.478.181-.66 0-.181-.182-.181-.478 0-.66l1.536-1.537L4.803 6.339c-.182-.182-.182-.478 0-.66.182-.181.478-.181.66 0l1.536 1.537 1.537-1.537c.182-.181.478-.181.66 0 .181.182.181.478 0 .66z"/>
</svg>