<svg width="30" height="30" viewBox="0 0 30 30" xmlns="http://www.w3.org/2000/svg">
  <path d="M13.227 5.452c-.373 1.199-1.382 4.307-6.235 3.329-.142-.047-.307.097-.363.205-.598 1.002-.577 1.59-.417 1.934.162.265.235.63.471.841.196.199.361.33.571.33.254 0 .51-.133.707-.33 1.995-1.888 4.06-4.352 1.894-7.495-.093-.133-.285-.2-.453-.2h-2.372c-.168 0-.31.067-.453.2-2.166 3.143-4.231 5.607-6.235 7.495-.197.197-.453.33-.707.33s-.51-.133-.707-.33c-.247-.211-4.065-4.675 1.894-7.495-.142-.133-.285-.2-.453-.2h-2.372c-.168 0-.31.067-.453.2-2.166 3.143-4.231 5.607-6.235 7.495-.197.197-.453.33-.707.33s-.51-.133-.707-.33c-.247-.211-1.065-1.665.894-2.553.193-.193.285-.467.285-.741 0-.324-.133-.638-.33-.835.247-.211 4.065-4.675 6.894-1.894.193.193.447.33.707.33h2.372c.26 0 .514-.137.707-.33 2.829-3.143 4.894-1.661 5.087-.461.193.193.285.467.285.741 0 .274-.093.538-.285.741-1.829 1.888-3.894 4.352-1.894 7.495.093.133.285.2.453.2h2.372c.168 0 .31-.067.453-.2 2.166-3.143 4.231-5.607 6.235-7.495.197-.197.453-.33.707-.33s.51.133.707.33c.247.211 1.065 1.665-.894 2.553-.193.193-.285.467-.285.741 0 .274.093.538.285.741-1.829 1.888-3.894 4.352-1.894 7.495.093.133.285.2.453.2h2.372c.168 0 .31-.067.453-.2 2.166-3.143 4.231-5.607 6.235-7.495.197-.197.453-.33.707-.33s.51.133.707.33c.247.211 4.065 4.675-1.894 7.495-.193.193-.285.467-.285.741 0 .274.093.538.285.741-1.829 1.888-3.894 4.352-1.894 7.495.093.133.285.2.453.2h2.372c.168 0 .31-.067.453-.2 2.166-3.143 4.231-5.607 6.235-7.495.197-.197.453-.33.707-.33s.51.133.707.33c.247.211 4.065 4.675-1.894 7.495-.193.193-.285.467-.285.741 0 .274.093.538.285.741-1.829 1.888-3.894 4.352-1.894 7.495.093.133.285.2.453.2h2.372c.168 0 .31-.067.453-.2 2.166-3.143 4.231-5.607 6.235-7.495.197-.197.453-.33.707-.33s.51.133.707.33" stroke-width="1.5" fill="none" stroke="#666666"/>
  <circle cx="15" cy="15" r="3.139" stroke-width="1.5" fill="none" stroke="#666666"/>
</svg>