<svg xmlns="http://www.w3.org/2000/svg" viewBox="0 0 30 30" width="30" height="30">
  <path d="M13.816 4.25C13.18 4.25 12.677 4.692 12.51 5.23 12.344 5.766 11.955 6.687 11.156 7.359 10.396 8 9.173 8.492 7.153 8.048 6.626 7.932 6.04 8.138 5.728 8.633 5.097 9.635 4.726 10.222 4.509 10.565 4.119 11.181 4.313 11.946 4.784 12.366 5.237 12.771 5.863 13.478 6.058 14.369 6.238 15.191 6.087 16.342 4.649 17.77 4.226 18.189 4.104 18.874 4.454 19.422L5.725 21.413C6.07 21.953 6.719 22.132 7.259 21.982 7.819 21.828 8.832 21.649 9.836 21.943 10.785 22.222 11.833 22.953 12.48 24.841 12.658 25.359 13.149 25.75 13.74 25.75H16.26C16.851 25.75 17.342 25.359 17.52 24.841 18.167 22.953 19.215 22.222 20.164 21.943 21.168 21.649 22.181 21.828 22.741 21.982 23.281 22.132 23.93 21.953 24.275 21.413 25.546 19.422 25.896 18.874 25.774 18.189 25.351 17.77 23.913 16.342 23.762 15.191 23.942 14.369 24.137 13.478 24.763 12.771 25.216 12.366 25.687 11.946 25.881 11.181 25.491 10.565 25.274 10.222 24.903 9.635 24.272 8.633 23.96 8.138 23.374 7.932 22.847 8.048 20.826 8.492 19.604 8 18.844 7.359 18.045 6.687 17.656 5.766 17.49 5.23 17.323 4.692 16.82 4.25 16.184 4.25H13.816ZM15 18.889C12.852 18.889 11.111 17.148 11.111 15 11.111 12.852 12.852 11.111 15 11.111 17.147 11.111 18.889 12.852 18.889 15 18.889Z" fill="#222222" fill-rule="evenodd"/>
</svg>